<svg xmlns="http://www.w3.org/2000/svg" xmlns:xlink="http://www.w3.org/1999/xlink" width="349" zoomAndPan="magnify" viewBox="0 0 261.75 66" height="88" preserveAspectRatio="xMidYMid meet" version="1.0"><defs><g/><clipPath id="a0dfd140ce"><path d="M 0 17.066406 L 35.964844 17.066406 L 35.964844 56.777344 L 0 56.777344 Z M 0 17.066406 " clip-rule="nonzero"/></clipPath></defs><g clip-path="url(#a0dfd140ce)"><path fill="#233dff" d="M 31.628906 41.910156 C 31.628906 43.101562 32.59375 44.074219 33.789062 44.074219 C 34.980469 44.074219 35.953125 43.101562 35.953125 41.910156 L 35.953125 24.5 C 35.953125 22.449219 35.117188 20.59375 33.769531 19.246094 C 32.421875 17.898438 30.566406 17.0625 28.519531 17.0625 C 26.472656 17.0625 24.613281 17.898438 23.269531 19.246094 C 21.917969 20.59375 21.085938 22.449219 21.085938 24.5 L 21.085938 36.632812 C 21.085938 37.472656 20.730469 38.246094 20.160156 38.816406 C 19.59375 39.386719 18.816406 39.738281 17.976562 39.738281 C 17.125 39.738281 16.34375 39.390625 15.78125 38.828125 C 15.21875 38.261719 14.867188 37.484375 14.867188 36.632812 L 14.867188 24.5 C 14.867188 22.449219 14.03125 20.59375 12.6875 19.246094 C 11.335938 17.898438 9.480469 17.0625 7.433594 17.0625 C 5.394531 17.0625 3.535156 17.902344 2.1875 19.253906 C 0.839844 20.597656 0 22.457031 0 24.5 L 0 54.722656 C 0 55.917969 0.96875 56.882812 2.160156 56.882812 C 3.359375 56.882812 4.324219 55.917969 4.324219 54.722656 L 4.324219 24.5 C 4.324219 23.652344 4.679688 22.875 5.242188 22.308594 C 5.808594 21.738281 6.589844 21.386719 7.433594 21.386719 C 8.289062 21.386719 9.0625 21.738281 9.628906 22.304688 C 10.191406 22.867188 10.542969 23.644531 10.542969 24.5 L 10.542969 36.632812 C 10.542969 38.679688 11.378906 40.535156 12.726562 41.882812 C 14.070312 43.230469 15.929688 44.066406 17.976562 44.066406 C 20.007812 44.066406 21.867188 43.222656 23.21875 41.875 C 24.566406 40.523438 25.410156 38.664062 25.410156 36.632812 L 25.410156 24.5 C 25.410156 23.644531 25.757812 22.867188 26.324219 22.304688 C 26.886719 21.738281 27.667969 21.386719 28.519531 21.386719 C 29.371094 21.386719 30.148438 21.738281 30.714844 22.304688 C 31.277344 22.867188 31.628906 23.644531 31.628906 24.5 L 31.628906 41.910156 " fill-opacity="1" fill-rule="nonzero"/></g><g fill="#ffffff" fill-opacity="1"><g transform="translate(39.013647, 44.26475)"><g><path d="M 3.203125 0.3125 C 2.597656 0.3125 2.109375 0.171875 1.734375 -0.109375 C 1.367188 -0.390625 1.144531 -0.765625 1.0625 -1.234375 C 0.988281 -1.710938 1.082031 -2.242188 1.34375 -2.828125 L 11.421875 -25.1875 C 11.753906 -25.925781 12.15625 -26.453125 12.625 -26.765625 C 13.101562 -27.085938 13.644531 -27.25 14.25 -27.25 C 14.84375 -27.25 15.375 -27.085938 15.84375 -26.765625 C 16.3125 -26.453125 16.710938 -25.925781 17.046875 -25.1875 L 27.171875 -2.828125 C 27.453125 -2.242188 27.550781 -1.707031 27.46875 -1.21875 C 27.394531 -0.738281 27.179688 -0.363281 26.828125 -0.09375 C 26.472656 0.175781 26.003906 0.3125 25.421875 0.3125 C 24.703125 0.3125 24.144531 0.140625 23.75 -0.203125 C 23.351562 -0.546875 23.003906 -1.078125 22.703125 -1.796875 L 20.21875 -7.5625 L 22.28125 -6.234375 L 6.15625 -6.234375 L 8.21875 -7.5625 L 5.765625 -1.796875 C 5.441406 -1.054688 5.097656 -0.519531 4.734375 -0.1875 C 4.378906 0.144531 3.867188 0.3125 3.203125 0.3125 Z M 14.171875 -21.625 L 8.828125 -8.90625 L 7.828125 -10.125 L 20.59375 -10.125 L 19.640625 -8.90625 L 14.25 -21.625 Z M 14.171875 -21.625 "/></g></g></g><g fill="#ffffff" fill-opacity="1"><g transform="translate(67.44456, 44.26475)"><g><path d="M 5.421875 0 C 4.640625 0 4.03125 -0.222656 3.59375 -0.671875 C 3.15625 -1.117188 2.9375 -1.734375 2.9375 -2.515625 L 2.9375 -24.578125 C 2.9375 -25.390625 3.144531 -26.003906 3.5625 -26.421875 C 3.988281 -26.847656 4.597656 -27.0625 5.390625 -27.0625 C 6.179688 -27.0625 6.785156 -26.847656 7.203125 -26.421875 C 7.617188 -26.003906 7.828125 -25.390625 7.828125 -24.578125 L 7.828125 -4.171875 L 18.921875 -4.171875 C 19.609375 -4.171875 20.132812 -3.988281 20.5 -3.625 C 20.875 -3.269531 21.0625 -2.765625 21.0625 -2.109375 C 21.0625 -1.441406 20.875 -0.921875 20.5 -0.546875 C 20.132812 -0.179688 19.609375 0 18.921875 0 Z M 5.421875 0 "/></g></g></g><g fill="#ffffff" fill-opacity="1"><g transform="translate(88.920595, 44.26475)"><g><path d="M 25.34375 4.3125 C 25.695312 4.875 25.832031 5.382812 25.75 5.84375 C 25.675781 6.300781 25.472656 6.6875 25.140625 7 C 24.816406 7.320312 24.410156 7.53125 23.921875 7.625 C 23.441406 7.71875 22.957031 7.664062 22.46875 7.46875 C 21.988281 7.28125 21.582031 6.914062 21.25 6.375 L 18.609375 2.140625 C 18.253906 1.554688 17.773438 1.113281 17.171875 0.8125 C 16.578125 0.519531 15.847656 0.375 14.984375 0.375 L 18.765625 -1.109375 C 19.960938 -1.109375 20.914062 -0.894531 21.625 -0.46875 C 22.34375 -0.0507812 23.035156 0.675781 23.703125 1.71875 Z M 15.015625 0.375 C 12.421875 0.375 10.148438 -0.195312 8.203125 -1.34375 C 6.253906 -2.488281 4.742188 -4.097656 3.671875 -6.171875 C 2.597656 -8.242188 2.0625 -10.679688 2.0625 -13.484375 C 2.0625 -15.597656 2.363281 -17.503906 2.96875 -19.203125 C 3.582031 -20.898438 4.457031 -22.351562 5.59375 -23.5625 C 6.726562 -24.769531 8.09375 -25.695312 9.6875 -26.34375 C 11.28125 -27 13.054688 -27.328125 15.015625 -27.328125 C 17.640625 -27.328125 19.921875 -26.757812 21.859375 -25.625 C 23.796875 -24.488281 25.296875 -22.890625 26.359375 -20.828125 C 27.429688 -18.765625 27.96875 -16.332031 27.96875 -13.53125 C 27.96875 -11.414062 27.660156 -9.503906 27.046875 -7.796875 C 26.441406 -6.085938 25.570312 -4.617188 24.4375 -3.390625 C 23.300781 -2.171875 21.9375 -1.238281 20.34375 -0.59375 C 18.757812 0.0507812 16.984375 0.375 15.015625 0.375 Z M 15.015625 -3.828125 C 16.671875 -3.828125 18.078125 -4.207031 19.234375 -4.96875 C 20.398438 -5.726562 21.296875 -6.832031 21.921875 -8.28125 C 22.546875 -9.738281 22.859375 -11.472656 22.859375 -13.484375 C 22.859375 -16.546875 22.175781 -18.914062 20.8125 -20.59375 C 19.445312 -22.28125 17.515625 -23.125 15.015625 -23.125 C 13.390625 -23.125 11.988281 -22.75 10.8125 -22 C 9.644531 -21.25 8.75 -20.148438 8.125 -18.703125 C 7.5 -17.265625 7.1875 -15.523438 7.1875 -13.484375 C 7.1875 -10.453125 7.875 -8.082031 9.25 -6.375 C 10.625 -4.675781 12.546875 -3.828125 15.015625 -3.828125 Z M 15.015625 -3.828125 "/></g></g></g><g fill="#ffffff" fill-opacity="1"><g transform="translate(118.918264, 44.26475)"><g><path d="M 3.203125 0.3125 C 2.597656 0.3125 2.109375 0.171875 1.734375 -0.109375 C 1.367188 -0.390625 1.144531 -0.765625 1.0625 -1.234375 C 0.988281 -1.710938 1.082031 -2.242188 1.34375 -2.828125 L 11.421875 -25.1875 C 11.753906 -25.925781 12.15625 -26.453125 12.625 -26.765625 C 13.101562 -27.085938 13.644531 -27.25 14.25 -27.25 C 14.84375 -27.25 15.375 -27.085938 15.84375 -26.765625 C 16.3125 -26.453125 16.710938 -25.925781 17.046875 -25.1875 L 27.171875 -2.828125 C 27.453125 -2.242188 27.550781 -1.707031 27.46875 -1.21875 C 27.394531 -0.738281 27.179688 -0.363281 26.828125 -0.09375 C 26.472656 0.175781 26.003906 0.3125 25.421875 0.3125 C 24.703125 0.3125 24.144531 0.140625 23.75 -0.203125 C 23.351562 -0.546875 23.003906 -1.078125 22.703125 -1.796875 L 20.21875 -7.5625 L 22.28125 -6.234375 L 6.15625 -6.234375 L 8.21875 -7.5625 L 5.765625 -1.796875 C 5.441406 -1.054688 5.097656 -0.519531 4.734375 -0.1875 C 4.378906 0.144531 3.867188 0.3125 3.203125 0.3125 Z M 14.171875 -21.625 L 8.828125 -8.90625 L 7.828125 -10.125 L 20.59375 -10.125 L 19.640625 -8.90625 L 14.25 -21.625 Z M 14.171875 -21.625 "/></g></g></g><g fill="#ffffff" fill-opacity="1"><g transform="translate(147.349177, 44.26475)"><g><path d="M 5.546875 0 C 4.703125 0 4.054688 -0.222656 3.609375 -0.671875 C 3.160156 -1.117188 2.9375 -1.757812 2.9375 -2.59375 L 2.9375 -24.34375 C 2.9375 -25.1875 3.160156 -25.828125 3.609375 -26.265625 C 4.054688 -26.710938 4.703125 -26.9375 5.546875 -26.9375 L 14.71875 -26.9375 C 16.601562 -26.9375 18.207031 -26.65625 19.53125 -26.09375 C 20.851562 -25.539062 21.863281 -24.738281 22.5625 -23.6875 C 23.269531 -22.644531 23.625 -21.398438 23.625 -19.953125 C 23.625 -18.316406 23.148438 -16.9375 22.203125 -15.8125 C 21.265625 -14.695312 19.976562 -13.945312 18.34375 -13.5625 L 18.34375 -14.140625 C 20.226562 -13.859375 21.691406 -13.144531 22.734375 -12 C 23.785156 -10.851562 24.3125 -9.363281 24.3125 -7.53125 C 24.3125 -5.132812 23.5 -3.28125 21.875 -1.96875 C 20.257812 -0.65625 18.015625 0 15.140625 0 Z M 7.640625 -3.703125 L 14.515625 -3.703125 C 16.253906 -3.703125 17.53125 -4.039062 18.34375 -4.71875 C 19.15625 -5.394531 19.5625 -6.410156 19.5625 -7.765625 C 19.5625 -9.140625 19.15625 -10.15625 18.34375 -10.8125 C 17.53125 -11.476562 16.253906 -11.8125 14.515625 -11.8125 L 7.640625 -11.8125 Z M 7.640625 -15.515625 L 13.875 -15.515625 C 15.550781 -15.515625 16.800781 -15.835938 17.625 -16.484375 C 18.457031 -17.140625 18.875 -18.101562 18.875 -19.375 C 18.875 -20.644531 18.457031 -21.601562 17.625 -22.25 C 16.800781 -22.90625 15.550781 -23.234375 13.875 -23.234375 L 7.640625 -23.234375 Z M 7.640625 -15.515625 "/></g></g></g><g fill="#ffffff" fill-opacity="1"><g transform="translate(173.640132, 44.26475)"><g><path d="M 3.203125 0.3125 C 2.597656 0.3125 2.109375 0.171875 1.734375 -0.109375 C 1.367188 -0.390625 1.144531 -0.765625 1.0625 -1.234375 C 0.988281 -1.710938 1.082031 -2.242188 1.34375 -2.828125 L 11.421875 -25.1875 C 11.753906 -25.925781 12.15625 -26.453125 12.625 -26.765625 C 13.101562 -27.085938 13.644531 -27.25 14.25 -27.25 C 14.84375 -27.25 15.375 -27.085938 15.84375 -26.765625 C 16.3125 -26.453125 16.710938 -25.925781 17.046875 -25.1875 L 27.171875 -2.828125 C 27.453125 -2.242188 27.550781 -1.707031 27.46875 -1.21875 C 27.394531 -0.738281 27.179688 -0.363281 26.828125 -0.09375 C 26.472656 0.175781 26.003906 0.3125 25.421875 0.3125 C 24.703125 0.3125 24.144531 0.140625 23.75 -0.203125 C 23.351562 -0.546875 23.003906 -1.078125 22.703125 -1.796875 L 20.21875 -7.5625 L 22.28125 -6.234375 L 6.15625 -6.234375 L 8.21875 -7.5625 L 5.765625 -1.796875 C 5.441406 -1.054688 5.097656 -0.519531 4.734375 -0.1875 C 4.378906 0.144531 3.867188 0.3125 3.203125 0.3125 Z M 14.171875 -21.625 L 8.828125 -8.90625 L 7.828125 -10.125 L 20.59375 -10.125 L 19.640625 -8.90625 L 14.25 -21.625 Z M 14.171875 -21.625 "/></g></g></g><g fill="#ffffff" fill-opacity="1"><g transform="translate(202.071045, 44.26475)"><g><path d="M 12.234375 0.375 C 11.109375 0.375 9.984375 0.289062 8.859375 0.125 C 7.742188 -0.03125 6.6875 -0.28125 5.6875 -0.625 C 4.695312 -0.96875 3.804688 -1.394531 3.015625 -1.90625 C 2.554688 -2.21875 2.238281 -2.585938 2.0625 -3.015625 C 1.882812 -3.453125 1.828125 -3.878906 1.890625 -4.296875 C 1.953125 -4.722656 2.117188 -5.09375 2.390625 -5.40625 C 2.660156 -5.726562 3 -5.925781 3.40625 -6 C 3.8125 -6.070312 4.253906 -5.957031 4.734375 -5.65625 C 5.859375 -4.988281 7.046875 -4.503906 8.296875 -4.203125 C 9.546875 -3.898438 10.859375 -3.75 12.234375 -3.75 C 14.242188 -3.75 15.707031 -4.082031 16.625 -4.75 C 17.539062 -5.425781 18 -6.300781 18 -7.375 C 18 -8.269531 17.671875 -8.972656 17.015625 -9.484375 C 16.367188 -9.992188 15.257812 -10.410156 13.6875 -10.734375 L 9.484375 -11.625 C 7.054688 -12.132812 5.25 -12.992188 4.0625 -14.203125 C 2.882812 -15.410156 2.296875 -17.007812 2.296875 -19 C 2.296875 -20.25 2.550781 -21.378906 3.0625 -22.390625 C 3.570312 -23.410156 4.289062 -24.289062 5.21875 -25.03125 C 6.144531 -25.769531 7.25 -26.335938 8.53125 -26.734375 C 9.820312 -27.128906 11.242188 -27.328125 12.796875 -27.328125 C 14.328125 -27.328125 15.78125 -27.132812 17.15625 -26.75 C 18.53125 -26.375 19.769531 -25.816406 20.875 -25.078125 C 21.28125 -24.796875 21.550781 -24.445312 21.6875 -24.03125 C 21.832031 -23.625 21.863281 -23.222656 21.78125 -22.828125 C 21.707031 -22.441406 21.53125 -22.109375 21.25 -21.828125 C 20.96875 -21.546875 20.613281 -21.378906 20.1875 -21.328125 C 19.769531 -21.273438 19.296875 -21.398438 18.765625 -21.703125 C 17.816406 -22.242188 16.859375 -22.628906 15.890625 -22.859375 C 14.929688 -23.085938 13.890625 -23.203125 12.765625 -23.203125 C 11.585938 -23.203125 10.578125 -23.035156 9.734375 -22.703125 C 8.898438 -22.367188 8.257812 -21.898438 7.8125 -21.296875 C 7.363281 -20.703125 7.140625 -20 7.140625 -19.1875 C 7.140625 -18.269531 7.445312 -17.535156 8.0625 -16.984375 C 8.675781 -16.441406 9.722656 -16.015625 11.203125 -15.703125 L 15.359375 -14.828125 C 17.878906 -14.296875 19.757812 -13.457031 21 -12.3125 C 22.238281 -11.164062 22.859375 -9.632812 22.859375 -7.71875 C 22.859375 -6.5 22.609375 -5.390625 22.109375 -4.390625 C 21.609375 -3.398438 20.894531 -2.546875 19.96875 -1.828125 C 19.039062 -1.117188 17.925781 -0.570312 16.625 -0.1875 C 15.320312 0.1875 13.859375 0.375 12.234375 0.375 Z M 12.234375 0.375 "/></g></g></g><g fill="#ffffff" fill-opacity="1"><g transform="translate(226.183821, 44.26475)"><g><path d="M 11.8125 0.3125 C 11.019531 0.3125 10.410156 0.0859375 9.984375 -0.359375 C 9.566406 -0.804688 9.359375 -1.4375 9.359375 -2.25 L 9.359375 -13.875 L 10.390625 -10.9375 L 1.1875 -23.890625 C 0.851562 -24.347656 0.703125 -24.835938 0.734375 -25.359375 C 0.773438 -25.878906 0.988281 -26.320312 1.375 -26.6875 C 1.757812 -27.0625 2.296875 -27.25 2.984375 -27.25 C 3.492188 -27.25 3.957031 -27.117188 4.375 -26.859375 C 4.789062 -26.609375 5.191406 -26.21875 5.578125 -25.6875 L 12.421875 -15.96875 L 11.34375 -15.96875 L 18.234375 -25.6875 C 18.640625 -26.25 19.03125 -26.648438 19.40625 -26.890625 C 19.789062 -27.128906 20.265625 -27.25 20.828125 -27.25 C 21.492188 -27.25 22.007812 -27.078125 22.375 -26.734375 C 22.75 -26.390625 22.941406 -25.960938 22.953125 -25.453125 C 22.960938 -24.941406 22.773438 -24.40625 22.390625 -23.84375 L 13.265625 -10.9375 L 14.25 -13.875 L 14.25 -2.25 C 14.25 -0.539062 13.4375 0.3125 11.8125 0.3125 Z M 11.8125 0.3125 "/></g></g></g><g fill="#ffffff" fill-opacity="1"><g transform="translate(5.490519, 55.599744)"><g><path d="M 3.375 0.09375 C 3.144531 0.09375 2.96875 0.03125 2.84375 -0.09375 C 2.726562 -0.226562 2.671875 -0.40625 2.671875 -0.625 L 2.671875 -6.46875 L 0.5625 -6.46875 C 0.375 -6.46875 0.226562 -6.519531 0.125 -6.625 C 0.0195312 -6.738281 -0.03125 -6.882812 -0.03125 -7.0625 C -0.03125 -7.25 0.0195312 -7.390625 0.125 -7.484375 C 0.226562 -7.585938 0.375 -7.640625 0.5625 -7.640625 L 6.171875 -7.640625 C 6.359375 -7.640625 6.503906 -7.585938 6.609375 -7.484375 C 6.710938 -7.390625 6.765625 -7.25 6.765625 -7.0625 C 6.765625 -6.882812 6.710938 -6.738281 6.609375 -6.625 C 6.503906 -6.519531 6.359375 -6.46875 6.171875 -6.46875 L 4.0625 -6.46875 L 4.0625 -0.625 C 4.0625 -0.40625 4.003906 -0.226562 3.890625 -0.09375 C 3.773438 0.03125 3.601562 0.09375 3.375 0.09375 Z M 3.375 0.09375 "/></g></g></g><g fill="#ffffff" fill-opacity="1"><g transform="translate(12.208341, 55.599744)"><g><path d="M 1.375 0.09375 C 1.15625 0.09375 0.988281 0.0351562 0.875 -0.078125 C 0.757812 -0.203125 0.703125 -0.378906 0.703125 -0.609375 L 0.703125 -7.03125 C 0.703125 -7.257812 0.757812 -7.429688 0.875 -7.546875 C 0.988281 -7.660156 1.15625 -7.71875 1.375 -7.71875 C 1.59375 -7.71875 1.757812 -7.660156 1.875 -7.546875 C 2 -7.429688 2.0625 -7.257812 2.0625 -7.03125 L 2.0625 -4.234375 L 1.90625 -4.234375 C 2.0625 -4.617188 2.304688 -4.910156 2.640625 -5.109375 C 2.984375 -5.304688 3.367188 -5.40625 3.796875 -5.40625 C 4.210938 -5.40625 4.554688 -5.320312 4.828125 -5.15625 C 5.109375 -5 5.316406 -4.757812 5.453125 -4.4375 C 5.585938 -4.125 5.65625 -3.722656 5.65625 -3.234375 L 5.65625 -0.609375 C 5.65625 -0.378906 5.597656 -0.203125 5.484375 -0.078125 C 5.367188 0.0351562 5.203125 0.09375 4.984375 0.09375 C 4.773438 0.09375 4.609375 0.0351562 4.484375 -0.078125 C 4.367188 -0.203125 4.3125 -0.378906 4.3125 -0.609375 L 4.3125 -3.15625 C 4.3125 -3.570312 4.234375 -3.875 4.078125 -4.0625 C 3.921875 -4.25 3.679688 -4.34375 3.359375 -4.34375 C 2.960938 -4.34375 2.644531 -4.21875 2.40625 -3.96875 C 2.175781 -3.71875 2.0625 -3.390625 2.0625 -2.984375 L 2.0625 -0.609375 C 2.0625 -0.140625 1.832031 0.09375 1.375 0.09375 Z M 1.375 0.09375 "/></g></g></g><g fill="#ffffff" fill-opacity="1"><g transform="translate(18.536728, 55.599744)"><g><path d="M 1.375 0.078125 C 1.15625 0.078125 0.988281 0.015625 0.875 -0.109375 C 0.757812 -0.242188 0.703125 -0.425781 0.703125 -0.65625 L 0.703125 -4.640625 C 0.703125 -4.867188 0.757812 -5.046875 0.875 -5.171875 C 0.988281 -5.304688 1.15625 -5.375 1.375 -5.375 C 1.59375 -5.375 1.757812 -5.304688 1.875 -5.171875 C 2 -5.046875 2.0625 -4.867188 2.0625 -4.640625 L 2.0625 -0.65625 C 2.0625 -0.425781 2 -0.242188 1.875 -0.109375 C 1.757812 0.015625 1.59375 0.078125 1.375 0.078125 Z M 1.375 -6.375 C 1.125 -6.375 0.925781 -6.4375 0.78125 -6.5625 C 0.644531 -6.6875 0.578125 -6.863281 0.578125 -7.09375 C 0.578125 -7.320312 0.644531 -7.5 0.78125 -7.625 C 0.925781 -7.75 1.125 -7.8125 1.375 -7.8125 C 1.632812 -7.8125 1.832031 -7.75 1.96875 -7.625 C 2.101562 -7.5 2.171875 -7.320312 2.171875 -7.09375 C 2.171875 -6.863281 2.101562 -6.6875 1.96875 -6.5625 C 1.832031 -6.4375 1.632812 -6.375 1.375 -6.375 Z M 1.375 -6.375 "/></g></g></g><g fill="#ffffff" fill-opacity="1"><g transform="translate(21.295255, 55.599744)"><g><path d="M 1.375 0.09375 C 1.15625 0.09375 0.988281 0.0351562 0.875 -0.078125 C 0.757812 -0.203125 0.703125 -0.378906 0.703125 -0.609375 L 0.703125 -4.703125 C 0.703125 -4.921875 0.757812 -5.085938 0.875 -5.203125 C 0.988281 -5.316406 1.148438 -5.375 1.359375 -5.375 C 1.566406 -5.375 1.726562 -5.316406 1.84375 -5.203125 C 1.96875 -5.085938 2.03125 -4.921875 2.03125 -4.703125 L 2.03125 -3.96875 L 1.90625 -4.234375 C 2.0625 -4.617188 2.304688 -4.910156 2.640625 -5.109375 C 2.984375 -5.304688 3.367188 -5.40625 3.796875 -5.40625 C 4.210938 -5.40625 4.554688 -5.320312 4.828125 -5.15625 C 5.109375 -5 5.316406 -4.757812 5.453125 -4.4375 C 5.585938 -4.125 5.65625 -3.722656 5.65625 -3.234375 L 5.65625 -0.609375 C 5.65625 -0.378906 5.597656 -0.203125 5.484375 -0.078125 C 5.367188 0.0351562 5.203125 0.09375 4.984375 0.09375 C 4.773438 0.09375 4.609375 0.0351562 4.484375 -0.078125 C 4.367188 -0.203125 4.3125 -0.378906 4.3125 -0.609375 L 4.3125 -3.15625 C 4.3125 -3.570312 4.234375 -3.875 4.078125 -4.0625 C 3.921875 -4.25 3.679688 -4.34375 3.359375 -4.34375 C 2.960938 -4.34375 2.644531 -4.21875 2.40625 -3.96875 C 2.175781 -3.71875 2.0625 -3.390625 2.0625 -2.984375 L 2.0625 -0.609375 C 2.0625 -0.140625 1.832031 0.09375 1.375 0.09375 Z M 1.375 0.09375 "/></g></g></g><g fill="#ffffff" fill-opacity="1"><g transform="translate(27.623641, 55.599744)"><g><path d="M 1.375 0.09375 C 1.15625 0.09375 0.988281 0.0351562 0.875 -0.078125 C 0.757812 -0.203125 0.703125 -0.378906 0.703125 -0.609375 L 0.703125 -7.03125 C 0.703125 -7.257812 0.757812 -7.429688 0.875 -7.546875 C 0.988281 -7.660156 1.15625 -7.71875 1.375 -7.71875 C 1.59375 -7.71875 1.757812 -7.660156 1.875 -7.546875 C 2 -7.429688 2.0625 -7.257812 2.0625 -7.03125 L 2.0625 -3.046875 L 2.078125 -3.046875 L 3.859375 -4.921875 C 4.003906 -5.066406 4.128906 -5.175781 4.234375 -5.25 C 4.347656 -5.332031 4.5 -5.375 4.6875 -5.375 C 4.875 -5.375 5.015625 -5.328125 5.109375 -5.234375 C 5.210938 -5.140625 5.265625 -5.019531 5.265625 -4.875 C 5.265625 -4.738281 5.195312 -4.601562 5.0625 -4.46875 L 3.1875 -2.484375 L 3.1875 -3.046875 L 5.25 -0.8125 C 5.382812 -0.675781 5.441406 -0.535156 5.421875 -0.390625 C 5.410156 -0.253906 5.351562 -0.140625 5.25 -0.046875 C 5.144531 0.046875 5.007812 0.09375 4.84375 0.09375 C 4.632812 0.09375 4.46875 0.0507812 4.34375 -0.03125 C 4.226562 -0.113281 4.101562 -0.234375 3.96875 -0.390625 L 2.078125 -2.359375 L 2.0625 -2.359375 L 2.0625 -0.609375 C 2.0625 -0.140625 1.832031 0.09375 1.375 0.09375 Z M 1.375 0.09375 "/></g></g></g><g fill="#ffffff" fill-opacity="1"><g transform="translate(33.421951, 55.599744)"><g><path d="M 1.359375 0.046875 C 1.109375 0.046875 0.910156 -0.0234375 0.765625 -0.171875 C 0.617188 -0.328125 0.546875 -0.523438 0.546875 -0.765625 C 0.546875 -0.992188 0.617188 -1.179688 0.765625 -1.328125 C 0.910156 -1.472656 1.109375 -1.546875 1.359375 -1.546875 C 1.609375 -1.546875 1.800781 -1.472656 1.9375 -1.328125 C 2.082031 -1.179688 2.15625 -0.992188 2.15625 -0.765625 C 2.15625 -0.523438 2.082031 -0.328125 1.9375 -0.171875 C 1.800781 -0.0234375 1.609375 0.046875 1.359375 0.046875 Z M 1.359375 0.046875 "/></g></g></g><g fill="#ffffff" fill-opacity="1"><g transform="translate(36.104756, 55.599744)"><g/></g></g><g fill="#ffffff" fill-opacity="1"><g transform="translate(39.03637, 55.599744)"><g><path d="M 3.46875 0.109375 C 3.144531 0.109375 2.820312 0.0820312 2.5 0.03125 C 2.1875 -0.0078125 1.890625 -0.078125 1.609375 -0.171875 C 1.328125 -0.273438 1.078125 -0.398438 0.859375 -0.546875 C 0.722656 -0.628906 0.628906 -0.734375 0.578125 -0.859375 C 0.535156 -0.984375 0.519531 -1.101562 0.53125 -1.21875 C 0.550781 -1.332031 0.597656 -1.4375 0.671875 -1.53125 C 0.753906 -1.625 0.851562 -1.679688 0.96875 -1.703125 C 1.082031 -1.722656 1.207031 -1.691406 1.34375 -1.609375 C 1.65625 -1.421875 1.988281 -1.28125 2.34375 -1.1875 C 2.695312 -1.101562 3.070312 -1.0625 3.46875 -1.0625 C 4.039062 -1.0625 4.453125 -1.15625 4.703125 -1.34375 C 4.960938 -1.539062 5.09375 -1.789062 5.09375 -2.09375 C 5.09375 -2.34375 5 -2.539062 4.8125 -2.6875 C 4.632812 -2.832031 4.320312 -2.953125 3.875 -3.046875 L 2.6875 -3.296875 C 2 -3.441406 1.488281 -3.679688 1.15625 -4.015625 C 0.820312 -4.359375 0.65625 -4.8125 0.65625 -5.375 C 0.65625 -5.726562 0.722656 -6.050781 0.859375 -6.34375 C 1.003906 -6.632812 1.207031 -6.882812 1.46875 -7.09375 C 1.738281 -7.300781 2.054688 -7.457031 2.421875 -7.5625 C 2.785156 -7.675781 3.1875 -7.734375 3.625 -7.734375 C 4.0625 -7.734375 4.472656 -7.679688 4.859375 -7.578125 C 5.253906 -7.472656 5.601562 -7.316406 5.90625 -7.109375 C 6.019531 -7.023438 6.097656 -6.925781 6.140625 -6.8125 C 6.179688 -6.695312 6.191406 -6.582031 6.171875 -6.46875 C 6.148438 -6.351562 6.097656 -6.253906 6.015625 -6.171875 C 5.941406 -6.097656 5.84375 -6.050781 5.71875 -6.03125 C 5.601562 -6.019531 5.46875 -6.0625 5.3125 -6.15625 C 5.050781 -6.300781 4.78125 -6.40625 4.5 -6.46875 C 4.226562 -6.539062 3.929688 -6.578125 3.609375 -6.578125 C 3.285156 -6.578125 3.003906 -6.53125 2.765625 -6.4375 C 2.523438 -6.34375 2.34375 -6.207031 2.21875 -6.03125 C 2.09375 -5.863281 2.03125 -5.664062 2.03125 -5.4375 C 2.03125 -5.175781 2.113281 -4.96875 2.28125 -4.8125 C 2.457031 -4.65625 2.753906 -4.535156 3.171875 -4.453125 L 4.359375 -4.203125 C 5.066406 -4.046875 5.59375 -3.804688 5.9375 -3.484375 C 6.289062 -3.160156 6.46875 -2.726562 6.46875 -2.1875 C 6.46875 -1.84375 6.394531 -1.53125 6.25 -1.25 C 6.113281 -0.96875 5.914062 -0.722656 5.65625 -0.515625 C 5.394531 -0.316406 5.078125 -0.160156 4.703125 -0.046875 C 4.335938 0.0546875 3.925781 0.109375 3.46875 0.109375 Z M 3.46875 0.109375 "/></g></g></g><g fill="#ffffff" fill-opacity="1"><g transform="translate(45.862362, 55.599744)"><g><path d="M 3.125 0.109375 C 2.570312 0.109375 2.09375 0 1.6875 -0.21875 C 1.28125 -0.445312 0.960938 -0.769531 0.734375 -1.1875 C 0.515625 -1.601562 0.40625 -2.09375 0.40625 -2.65625 C 0.40625 -3.082031 0.46875 -3.460938 0.59375 -3.796875 C 0.726562 -4.128906 0.910156 -4.414062 1.140625 -4.65625 C 1.378906 -4.90625 1.664062 -5.09375 2 -5.21875 C 2.332031 -5.34375 2.707031 -5.40625 3.125 -5.40625 C 3.664062 -5.40625 4.140625 -5.289062 4.546875 -5.0625 C 4.953125 -4.84375 5.265625 -4.523438 5.484375 -4.109375 C 5.710938 -3.703125 5.828125 -3.21875 5.828125 -2.65625 C 5.828125 -2.226562 5.765625 -1.84375 5.640625 -1.5 C 5.515625 -1.164062 5.332031 -0.875 5.09375 -0.625 C 4.851562 -0.382812 4.566406 -0.203125 4.234375 -0.078125 C 3.898438 0.046875 3.53125 0.109375 3.125 0.109375 Z M 3.125 -0.921875 C 3.382812 -0.921875 3.613281 -0.984375 3.8125 -1.109375 C 4.019531 -1.242188 4.179688 -1.4375 4.296875 -1.6875 C 4.410156 -1.945312 4.46875 -2.269531 4.46875 -2.65625 C 4.46875 -3.226562 4.34375 -3.65625 4.09375 -3.9375 C 3.84375 -4.226562 3.519531 -4.375 3.125 -4.375 C 2.851562 -4.375 2.613281 -4.3125 2.40625 -4.1875 C 2.207031 -4.0625 2.050781 -3.867188 1.9375 -3.609375 C 1.832031 -3.359375 1.78125 -3.039062 1.78125 -2.65625 C 1.78125 -2.082031 1.898438 -1.648438 2.140625 -1.359375 C 2.390625 -1.066406 2.71875 -0.921875 3.125 -0.921875 Z M 3.125 -0.921875 "/></g></g></g><g fill="#ffffff" fill-opacity="1"><g transform="translate(52.093383, 55.599744)"><g><path d="M 2.515625 0.109375 C 1.910156 0.109375 1.457031 -0.0625 1.15625 -0.40625 C 0.851562 -0.75 0.703125 -1.253906 0.703125 -1.921875 L 0.703125 -7.03125 C 0.703125 -7.257812 0.757812 -7.429688 0.875 -7.546875 C 0.988281 -7.660156 1.15625 -7.71875 1.375 -7.71875 C 1.59375 -7.71875 1.757812 -7.660156 1.875 -7.546875 C 2 -7.429688 2.0625 -7.257812 2.0625 -7.03125 L 2.0625 -1.984375 C 2.0625 -1.648438 2.128906 -1.398438 2.265625 -1.234375 C 2.410156 -1.078125 2.613281 -1 2.875 -1 C 2.925781 -1 2.976562 -1 3.03125 -1 C 3.082031 -1.007812 3.132812 -1.019531 3.1875 -1.03125 C 3.28125 -1.039062 3.34375 -1.007812 3.375 -0.9375 C 3.414062 -0.875 3.4375 -0.738281 3.4375 -0.53125 C 3.4375 -0.351562 3.398438 -0.210938 3.328125 -0.109375 C 3.265625 -0.00390625 3.148438 0.0546875 2.984375 0.078125 C 2.910156 0.0859375 2.832031 0.09375 2.75 0.09375 C 2.664062 0.101562 2.585938 0.109375 2.515625 0.109375 Z M 2.515625 0.109375 "/></g></g></g><g fill="#ffffff" fill-opacity="1"><g transform="translate(55.544246, 55.599744)"><g><path d="M 2.84375 0.09375 C 2.664062 0.09375 2.507812 0.046875 2.375 -0.046875 C 2.238281 -0.140625 2.128906 -0.285156 2.046875 -0.484375 L 0.328125 -4.484375 C 0.265625 -4.640625 0.238281 -4.785156 0.25 -4.921875 C 0.269531 -5.054688 0.335938 -5.164062 0.453125 -5.25 C 0.566406 -5.332031 0.71875 -5.375 0.90625 -5.375 C 1.070312 -5.375 1.207031 -5.335938 1.3125 -5.265625 C 1.414062 -5.191406 1.503906 -5.050781 1.578125 -4.84375 L 3.046875 -1.1875 L 2.71875 -1.1875 L 4.21875 -4.84375 C 4.300781 -5.050781 4.394531 -5.191406 4.5 -5.265625 C 4.601562 -5.335938 4.742188 -5.375 4.921875 -5.375 C 5.085938 -5.375 5.21875 -5.332031 5.3125 -5.25 C 5.40625 -5.164062 5.460938 -5.054688 5.484375 -4.921875 C 5.503906 -4.796875 5.476562 -4.65625 5.40625 -4.5 L 3.65625 -0.484375 C 3.570312 -0.285156 3.460938 -0.140625 3.328125 -0.046875 C 3.191406 0.046875 3.03125 0.09375 2.84375 0.09375 Z M 2.84375 0.09375 "/></g></g></g><g fill="#ffffff" fill-opacity="1"><g transform="translate(61.245202, 55.599744)"><g><path d="M 3.3125 0.109375 C 2.71875 0.109375 2.203125 0 1.765625 -0.21875 C 1.328125 -0.445312 0.988281 -0.765625 0.75 -1.171875 C 0.519531 -1.585938 0.40625 -2.078125 0.40625 -2.640625 C 0.40625 -3.191406 0.519531 -3.671875 0.75 -4.078125 C 0.976562 -4.492188 1.289062 -4.816406 1.6875 -5.046875 C 2.09375 -5.285156 2.550781 -5.40625 3.0625 -5.40625 C 3.4375 -5.40625 3.773438 -5.34375 4.078125 -5.21875 C 4.378906 -5.09375 4.632812 -4.914062 4.84375 -4.6875 C 5.0625 -4.457031 5.222656 -4.175781 5.328125 -3.84375 C 5.441406 -3.519531 5.5 -3.148438 5.5 -2.734375 C 5.5 -2.609375 5.453125 -2.507812 5.359375 -2.4375 C 5.273438 -2.375 5.148438 -2.34375 4.984375 -2.34375 L 1.5 -2.34375 L 1.5 -3.125 L 4.546875 -3.125 L 4.375 -2.953125 C 4.375 -3.285156 4.320312 -3.5625 4.21875 -3.78125 C 4.125 -4.007812 3.984375 -4.179688 3.796875 -4.296875 C 3.617188 -4.421875 3.394531 -4.484375 3.125 -4.484375 C 2.8125 -4.484375 2.550781 -4.410156 2.34375 -4.265625 C 2.132812 -4.128906 1.972656 -3.929688 1.859375 -3.671875 C 1.742188 -3.421875 1.6875 -3.117188 1.6875 -2.765625 L 1.6875 -2.6875 C 1.6875 -2.09375 1.820312 -1.648438 2.09375 -1.359375 C 2.375 -1.066406 2.785156 -0.921875 3.328125 -0.921875 C 3.515625 -0.921875 3.726562 -0.941406 3.96875 -0.984375 C 4.207031 -1.035156 4.429688 -1.117188 4.640625 -1.234375 C 4.785156 -1.316406 4.914062 -1.351562 5.03125 -1.34375 C 5.144531 -1.332031 5.234375 -1.289062 5.296875 -1.21875 C 5.367188 -1.144531 5.410156 -1.054688 5.421875 -0.953125 C 5.441406 -0.847656 5.425781 -0.738281 5.375 -0.625 C 5.320312 -0.519531 5.226562 -0.429688 5.09375 -0.359375 C 4.84375 -0.203125 4.550781 -0.0820312 4.21875 0 C 3.894531 0.0703125 3.59375 0.109375 3.3125 0.109375 Z M 3.3125 0.109375 "/></g></g></g><g fill="#ffffff" fill-opacity="1"><g transform="translate(67.108418, 55.599744)"><g><path d="M 1.359375 0.046875 C 1.109375 0.046875 0.910156 -0.0234375 0.765625 -0.171875 C 0.617188 -0.328125 0.546875 -0.523438 0.546875 -0.765625 C 0.546875 -0.992188 0.617188 -1.179688 0.765625 -1.328125 C 0.910156 -1.472656 1.109375 -1.546875 1.359375 -1.546875 C 1.609375 -1.546875 1.800781 -1.472656 1.9375 -1.328125 C 2.082031 -1.179688 2.15625 -0.992188 2.15625 -0.765625 C 2.15625 -0.523438 2.082031 -0.328125 1.9375 -0.171875 C 1.800781 -0.0234375 1.609375 0.046875 1.359375 0.046875 Z M 1.359375 0.046875 "/></g></g></g><g fill="#ffffff" fill-opacity="1"><g transform="translate(69.791223, 55.599744)"><g/></g></g><g fill="#ffffff" fill-opacity="1"><g transform="translate(72.722837, 55.599744)"><g><path d="M 1.5625 0 C 1.332031 0 1.148438 -0.0625 1.015625 -0.1875 C 0.890625 -0.3125 0.828125 -0.492188 0.828125 -0.734375 L 0.828125 -6.890625 C 0.828125 -7.128906 0.890625 -7.3125 1.015625 -7.4375 C 1.148438 -7.570312 1.332031 -7.640625 1.5625 -7.640625 L 3.671875 -7.640625 C 4.953125 -7.640625 5.9375 -7.304688 6.625 -6.640625 C 7.320312 -5.984375 7.671875 -5.046875 7.671875 -3.828125 C 7.671875 -3.210938 7.582031 -2.664062 7.40625 -2.1875 C 7.226562 -1.71875 6.96875 -1.320312 6.625 -1 C 6.289062 -0.675781 5.875 -0.425781 5.375 -0.25 C 4.882812 -0.0820312 4.316406 0 3.671875 0 Z M 2.21875 -1.140625 L 3.578125 -1.140625 C 4.023438 -1.140625 4.410156 -1.195312 4.734375 -1.3125 C 5.066406 -1.425781 5.34375 -1.59375 5.5625 -1.8125 C 5.789062 -2.03125 5.957031 -2.304688 6.0625 -2.640625 C 6.164062 -2.984375 6.21875 -3.378906 6.21875 -3.828125 C 6.21875 -4.722656 6 -5.390625 5.5625 -5.828125 C 5.125 -6.265625 4.460938 -6.484375 3.578125 -6.484375 L 2.21875 -6.484375 Z M 2.21875 -1.140625 "/></g></g></g><g fill="#ffffff" fill-opacity="1"><g transform="translate(80.965959, 55.599744)"><g><path d="M 3.3125 0.109375 C 2.71875 0.109375 2.203125 0 1.765625 -0.21875 C 1.328125 -0.445312 0.988281 -0.765625 0.75 -1.171875 C 0.519531 -1.585938 0.40625 -2.078125 0.40625 -2.640625 C 0.40625 -3.191406 0.519531 -3.671875 0.75 -4.078125 C 0.976562 -4.492188 1.289062 -4.816406 1.6875 -5.046875 C 2.09375 -5.285156 2.550781 -5.40625 3.0625 -5.40625 C 3.4375 -5.40625 3.773438 -5.34375 4.078125 -5.21875 C 4.378906 -5.09375 4.632812 -4.914062 4.84375 -4.6875 C 5.0625 -4.457031 5.222656 -4.175781 5.328125 -3.84375 C 5.441406 -3.519531 5.5 -3.148438 5.5 -2.734375 C 5.5 -2.609375 5.453125 -2.507812 5.359375 -2.4375 C 5.273438 -2.375 5.148438 -2.34375 4.984375 -2.34375 L 1.5 -2.34375 L 1.5 -3.125 L 4.546875 -3.125 L 4.375 -2.953125 C 4.375 -3.285156 4.320312 -3.5625 4.21875 -3.78125 C 4.125 -4.007812 3.984375 -4.179688 3.796875 -4.296875 C 3.617188 -4.421875 3.394531 -4.484375 3.125 -4.484375 C 2.8125 -4.484375 2.550781 -4.410156 2.34375 -4.265625 C 2.132812 -4.128906 1.972656 -3.929688 1.859375 -3.671875 C 1.742188 -3.421875 1.6875 -3.117188 1.6875 -2.765625 L 1.6875 -2.6875 C 1.6875 -2.09375 1.820312 -1.648438 2.09375 -1.359375 C 2.375 -1.066406 2.785156 -0.921875 3.328125 -0.921875 C 3.515625 -0.921875 3.726562 -0.941406 3.96875 -0.984375 C 4.207031 -1.035156 4.429688 -1.117188 4.640625 -1.234375 C 4.785156 -1.316406 4.914062 -1.351562 5.03125 -1.34375 C 5.144531 -1.332031 5.234375 -1.289062 5.296875 -1.21875 C 5.367188 -1.144531 5.410156 -1.054688 5.421875 -0.953125 C 5.441406 -0.847656 5.425781 -0.738281 5.375 -0.625 C 5.320312 -0.519531 5.226562 -0.429688 5.09375 -0.359375 C 4.84375 -0.203125 4.550781 -0.0820312 4.21875 0 C 3.894531 0.0703125 3.59375 0.109375 3.3125 0.109375 Z M 3.3125 0.109375 "/></g></g></g><g fill="#ffffff" fill-opacity="1"><g transform="translate(86.829175, 55.599744)"><g><path d="M 2.515625 0.109375 C 1.910156 0.109375 1.457031 -0.0625 1.15625 -0.40625 C 0.851562 -0.75 0.703125 -1.253906 0.703125 -1.921875 L 0.703125 -7.03125 C 0.703125 -7.257812 0.757812 -7.429688 0.875 -7.546875 C 0.988281 -7.660156 1.15625 -7.71875 1.375 -7.71875 C 1.59375 -7.71875 1.757812 -7.660156 1.875 -7.546875 C 2 -7.429688 2.0625 -7.257812 2.0625 -7.03125 L 2.0625 -1.984375 C 2.0625 -1.648438 2.128906 -1.398438 2.265625 -1.234375 C 2.410156 -1.078125 2.613281 -1 2.875 -1 C 2.925781 -1 2.976562 -1 3.03125 -1 C 3.082031 -1.007812 3.132812 -1.019531 3.1875 -1.03125 C 3.28125 -1.039062 3.34375 -1.007812 3.375 -0.9375 C 3.414062 -0.875 3.4375 -0.738281 3.4375 -0.53125 C 3.4375 -0.351562 3.398438 -0.210938 3.328125 -0.109375 C 3.265625 -0.00390625 3.148438 0.0546875 2.984375 0.078125 C 2.910156 0.0859375 2.832031 0.09375 2.75 0.09375 C 2.664062 0.101562 2.585938 0.109375 2.515625 0.109375 Z M 2.515625 0.109375 "/></g></g></g><g fill="#ffffff" fill-opacity="1"><g transform="translate(90.280038, 55.599744)"><g><path d="M 1.375 0.078125 C 1.15625 0.078125 0.988281 0.015625 0.875 -0.109375 C 0.757812 -0.242188 0.703125 -0.425781 0.703125 -0.65625 L 0.703125 -4.640625 C 0.703125 -4.867188 0.757812 -5.046875 0.875 -5.171875 C 0.988281 -5.304688 1.15625 -5.375 1.375 -5.375 C 1.59375 -5.375 1.757812 -5.304688 1.875 -5.171875 C 2 -5.046875 2.0625 -4.867188 2.0625 -4.640625 L 2.0625 -0.65625 C 2.0625 -0.425781 2 -0.242188 1.875 -0.109375 C 1.757812 0.015625 1.59375 0.078125 1.375 0.078125 Z M 1.375 -6.375 C 1.125 -6.375 0.925781 -6.4375 0.78125 -6.5625 C 0.644531 -6.6875 0.578125 -6.863281 0.578125 -7.09375 C 0.578125 -7.320312 0.644531 -7.5 0.78125 -7.625 C 0.925781 -7.75 1.125 -7.8125 1.375 -7.8125 C 1.632812 -7.8125 1.832031 -7.75 1.96875 -7.625 C 2.101562 -7.5 2.171875 -7.320312 2.171875 -7.09375 C 2.171875 -6.863281 2.101562 -6.6875 1.96875 -6.5625 C 1.832031 -6.4375 1.632812 -6.375 1.375 -6.375 Z M 1.375 -6.375 "/></g></g></g><g fill="#ffffff" fill-opacity="1"><g transform="translate(93.038565, 55.599744)"><g><path d="M 2.84375 0.09375 C 2.664062 0.09375 2.507812 0.046875 2.375 -0.046875 C 2.238281 -0.140625 2.128906 -0.285156 2.046875 -0.484375 L 0.328125 -4.484375 C 0.265625 -4.640625 0.238281 -4.785156 0.25 -4.921875 C 0.269531 -5.054688 0.335938 -5.164062 0.453125 -5.25 C 0.566406 -5.332031 0.71875 -5.375 0.90625 -5.375 C 1.070312 -5.375 1.207031 -5.335938 1.3125 -5.265625 C 1.414062 -5.191406 1.503906 -5.050781 1.578125 -4.84375 L 3.046875 -1.1875 L 2.71875 -1.1875 L 4.21875 -4.84375 C 4.300781 -5.050781 4.394531 -5.191406 4.5 -5.265625 C 4.601562 -5.335938 4.742188 -5.375 4.921875 -5.375 C 5.085938 -5.375 5.21875 -5.332031 5.3125 -5.25 C 5.40625 -5.164062 5.460938 -5.054688 5.484375 -4.921875 C 5.503906 -4.796875 5.476562 -4.65625 5.40625 -4.5 L 3.65625 -0.484375 C 3.570312 -0.285156 3.460938 -0.140625 3.328125 -0.046875 C 3.191406 0.046875 3.03125 0.09375 2.84375 0.09375 Z M 2.84375 0.09375 "/></g></g></g><g fill="#ffffff" fill-opacity="1"><g transform="translate(98.739522, 55.599744)"><g><path d="M 3.3125 0.109375 C 2.71875 0.109375 2.203125 0 1.765625 -0.21875 C 1.328125 -0.445312 0.988281 -0.765625 0.75 -1.171875 C 0.519531 -1.585938 0.40625 -2.078125 0.40625 -2.640625 C 0.40625 -3.191406 0.519531 -3.671875 0.75 -4.078125 C 0.976562 -4.492188 1.289062 -4.816406 1.6875 -5.046875 C 2.09375 -5.285156 2.550781 -5.40625 3.0625 -5.40625 C 3.4375 -5.40625 3.773438 -5.34375 4.078125 -5.21875 C 4.378906 -5.09375 4.632812 -4.914062 4.84375 -4.6875 C 5.0625 -4.457031 5.222656 -4.175781 5.328125 -3.84375 C 5.441406 -3.519531 5.5 -3.148438 5.5 -2.734375 C 5.5 -2.609375 5.453125 -2.507812 5.359375 -2.4375 C 5.273438 -2.375 5.148438 -2.34375 4.984375 -2.34375 L 1.5 -2.34375 L 1.5 -3.125 L 4.546875 -3.125 L 4.375 -2.953125 C 4.375 -3.285156 4.320312 -3.5625 4.21875 -3.78125 C 4.125 -4.007812 3.984375 -4.179688 3.796875 -4.296875 C 3.617188 -4.421875 3.394531 -4.484375 3.125 -4.484375 C 2.8125 -4.484375 2.550781 -4.410156 2.34375 -4.265625 C 2.132812 -4.128906 1.972656 -3.929688 1.859375 -3.671875 C 1.742188 -3.421875 1.6875 -3.117188 1.6875 -2.765625 L 1.6875 -2.6875 C 1.6875 -2.09375 1.820312 -1.648438 2.09375 -1.359375 C 2.375 -1.066406 2.785156 -0.921875 3.328125 -0.921875 C 3.515625 -0.921875 3.726562 -0.941406 3.96875 -0.984375 C 4.207031 -1.035156 4.429688 -1.117188 4.640625 -1.234375 C 4.785156 -1.316406 4.914062 -1.351562 5.03125 -1.34375 C 5.144531 -1.332031 5.234375 -1.289062 5.296875 -1.21875 C 5.367188 -1.144531 5.410156 -1.054688 5.421875 -0.953125 C 5.441406 -0.847656 5.425781 -0.738281 5.375 -0.625 C 5.320312 -0.519531 5.226562 -0.429688 5.09375 -0.359375 C 4.84375 -0.203125 4.550781 -0.0820312 4.21875 0 C 3.894531 0.0703125 3.59375 0.109375 3.3125 0.109375 Z M 3.3125 0.109375 "/></g></g></g><g fill="#ffffff" fill-opacity="1"><g transform="translate(104.602738, 55.599744)"><g><path d="M 1.390625 0.09375 C 1.171875 0.09375 1 0.0351562 0.875 -0.078125 C 0.757812 -0.203125 0.703125 -0.378906 0.703125 -0.609375 L 0.703125 -4.703125 C 0.703125 -4.921875 0.757812 -5.085938 0.875 -5.203125 C 0.988281 -5.316406 1.148438 -5.375 1.359375 -5.375 C 1.566406 -5.375 1.726562 -5.316406 1.84375 -5.203125 C 1.96875 -5.085938 2.03125 -4.921875 2.03125 -4.703125 L 2.03125 -4.015625 L 1.921875 -4.015625 C 2.015625 -4.453125 2.207031 -4.78125 2.5 -5 C 2.800781 -5.226562 3.195312 -5.363281 3.6875 -5.40625 C 3.84375 -5.414062 3.960938 -5.375 4.046875 -5.28125 C 4.140625 -5.195312 4.195312 -5.0625 4.21875 -4.875 C 4.226562 -4.695312 4.179688 -4.550781 4.078125 -4.4375 C 3.984375 -4.320312 3.84375 -4.253906 3.65625 -4.234375 L 3.40625 -4.21875 C 2.96875 -4.164062 2.632812 -4.023438 2.40625 -3.796875 C 2.1875 -3.578125 2.078125 -3.257812 2.078125 -2.84375 L 2.078125 -0.609375 C 2.078125 -0.378906 2.019531 -0.203125 1.90625 -0.078125 C 1.789062 0.0351562 1.617188 0.09375 1.390625 0.09375 Z M 1.390625 0.09375 "/></g></g></g><g fill="#ffffff" fill-opacity="1"><g transform="translate(108.84329, 55.599744)"><g><path d="M 1.359375 0.046875 C 1.109375 0.046875 0.910156 -0.0234375 0.765625 -0.171875 C 0.617188 -0.328125 0.546875 -0.523438 0.546875 -0.765625 C 0.546875 -0.992188 0.617188 -1.179688 0.765625 -1.328125 C 0.910156 -1.472656 1.109375 -1.546875 1.359375 -1.546875 C 1.609375 -1.546875 1.800781 -1.472656 1.9375 -1.328125 C 2.082031 -1.179688 2.15625 -0.992188 2.15625 -0.765625 C 2.15625 -0.523438 2.082031 -0.328125 1.9375 -0.171875 C 1.800781 -0.0234375 1.609375 0.046875 1.359375 0.046875 Z M 1.359375 0.046875 "/></g></g></g></svg>