
<svg xmlns="http://www.w3.org/2000/svg" xmlns:xlink="http://www.w3.org/1999/xlink" preserveAspectRatio="xMidYMid meet" version="1.0" viewBox="559.1 511.7 881.8 976.6" zoomAndPan="magnify" style="fill: rgb(0, 0, 0);" original_string_length="2472"><g id="__id0_sdvepd6aqg"><path d="M 1334.851562 1121.058594 C 1334.851562 1150.328125 1358.550781 1174.121094 1387.820312 1174.121094 C 1417.089844 1174.121094 1440.878906 1150.328125 1440.878906 1121.058594 L 1440.878906 694.019531 C 1440.878906 643.789062 1420.359375 598.25 1387.378906 565.179688 C 1354.300781 532.191406 1308.761719 511.679688 1258.53125 511.679688 C 1208.390625 511.679688 1162.761719 532.191406 1129.769531 565.179688 C 1096.699219 598.25 1076.269531 643.789062 1076.269531 694.019531 L 1076.269531 991.601562 C 1076.269531 1012.199219 1067.519531 1031.21875 1053.550781 1045.191406 C 1039.660156 1059.160156 1020.558594 1067.828125 999.957031 1067.828125 C 979.085938 1067.828125 959.984375 1059.25 946.1875 1045.449219 C 932.304688 1031.570312 923.726562 1012.558594 923.726562 991.601562 L 923.726562 694.019531 C 923.726562 643.789062 903.210938 598.25 870.226562 565.179688 C 837.152344 532.191406 791.609375 511.679688 741.378906 511.679688 C 691.414062 511.679688 645.785156 532.28125 612.710938 565.359375 C 579.636719 598.339844 559.121094 643.96875 559.121094 694.019531 L 559.121094 1435.351562 C 559.121094 1464.621094 582.820312 1488.320312 612.09375 1488.320312 C 641.449219 1488.320312 665.152344 1464.621094 665.152344 1435.351562 L 665.152344 694.019531 C 665.152344 673.238281 673.816406 654.230469 687.699219 640.351562 C 701.585938 626.371094 720.6875 617.710938 741.378906 617.710938 C 762.339844 617.710938 781.351562 626.371094 795.234375 640.171875 C 809.03125 654.050781 817.695312 673.070312 817.695312 694.019531 L 817.695312 991.601562 C 817.695312 1041.828125 838.125 1087.371094 871.199219 1120.441406 C 904.183594 1153.429688 949.816406 1173.949219 999.957031 1173.949219 C 1049.828125 1173.949219 1095.460938 1153.25 1128.539062 1120.179688 C 1161.609375 1087.109375 1182.300781 1041.46875 1182.300781 991.601562 L 1182.300781 694.019531 C 1182.300781 673.070312 1190.878906 654.050781 1204.761719 640.171875 C 1218.558594 626.371094 1237.660156 617.710938 1258.53125 617.710938 C 1279.488281 617.710938 1298.5 626.371094 1312.390625 640.171875 C 1326.179688 654.050781 1334.851562 673.070312 1334.851562 694.019531 L 1334.851562 1121.058594" style="fill: rgb(35, 61, 255);"/></g></svg>